<svg width="15" height="16" viewBox="0 0 15 16" fill="none" xmlns="http://www.w3.org/2000/svg">
<path fill-rule="evenodd" clip-rule="evenodd" d="M3.75 0.5C4.16421 0.5 4.5 0.835786 4.5 1.25V2H10.5V1.25C10.5 0.835786 10.8358 0.5 11.25 0.5C11.6642 0.5 12 0.835786 12 1.25V2H12.75C13.9926 2 15 3.00736 15 4.25V13.25C15 14.4926 13.9926 15.5 12.75 15.5H2.25C1.00736 15.5 0 14.4926 0 13.25V4.25C0 3.00736 1.00736 2 2.25 2H3V1.25C3 0.835786 3.33579 0.5 3.75 0.5ZM10.5 3.5V4.25C10.5 4.66421 10.8358 5 11.25 5C11.6642 5 12 4.66421 12 4.25V3.5H12.75C13.1642 3.5 13.5 3.83579 13.5 4.25V6.5H1.5V4.25C1.5 3.83579 1.83579 3.5 2.25 3.5H3V4.25C3 4.66421 3.33579 5 3.75 5C4.16421 5 4.5 4.66421 4.5 4.25V3.5H10.5ZM1.5 8V13.25C1.5 13.6642 1.83579 14 2.25 14H12.75C13.1642 14 13.5 13.6642 13.5 13.25V8H1.5Z" fill="#808191"/>
</svg>
